<svg xmlns="http://www.w3.org/2000/svg" xmlns:xlink="http://www.w3.org/1999/xlink" width="200" zoomAndPan="magnify" viewBox="0 0 150 149.999998" height="200" preserveAspectRatio="xMidYMid meet" version="1.0"><defs><clipPath id="f40d753d27"><path d="M 0 0 L 150 0 L 150 150 L 0 150 Z M 0 0 " clip-rule="nonzero"/></clipPath><clipPath id="04ac7046cd"><path d="M 46.097656 52.738281 L 47.304688 52.738281 L 47.304688 53.945312 L 46.097656 53.945312 Z M 46.097656 52.738281 " clip-rule="nonzero"/></clipPath><clipPath id="3c0beebfa3"><path d="M 46.703125 52.738281 C 46.367188 52.738281 46.097656 53.007812 46.097656 53.339844 C 46.097656 53.671875 46.367188 53.945312 46.703125 53.945312 C 47.035156 53.945312 47.304688 53.671875 47.304688 53.339844 C 47.304688 53.007812 47.035156 52.738281 46.703125 52.738281 Z M 46.703125 52.738281 " clip-rule="nonzero"/></clipPath><clipPath id="e520e3d120"><path d="M 0.0976562 0.738281 L 1.304688 0.738281 L 1.304688 1.945312 L 0.0976562 1.945312 Z M 0.0976562 0.738281 " clip-rule="nonzero"/></clipPath><clipPath id="73bf11bb5f"><path d="M 0.703125 0.738281 C 0.367188 0.738281 0.0976562 1.007812 0.0976562 1.339844 C 0.0976562 1.671875 0.367188 1.945312 0.703125 1.945312 C 1.035156 1.945312 1.304688 1.671875 1.304688 1.339844 C 1.304688 1.007812 1.035156 0.738281 0.703125 0.738281 Z M 0.703125 0.738281 " clip-rule="nonzero"/></clipPath><clipPath id="d153d35bf0"><rect x="0" width="2" y="0" height="2"/></clipPath><clipPath id="382c74a699"><path d="M 89.203125 52.738281 L 90.410156 52.738281 L 90.410156 53.945312 L 89.203125 53.945312 Z M 89.203125 52.738281 " clip-rule="nonzero"/></clipPath><clipPath id="c02eb9d49e"><path d="M 89.804688 52.738281 C 89.472656 52.738281 89.203125 53.007812 89.203125 53.339844 C 89.203125 53.671875 89.472656 53.945312 89.804688 53.945312 C 90.140625 53.945312 90.410156 53.671875 90.410156 53.339844 C 90.410156 53.007812 90.140625 52.738281 89.804688 52.738281 Z M 89.804688 52.738281 " clip-rule="nonzero"/></clipPath><clipPath id="c855cd9a1f"><path d="M 0.203125 0.738281 L 1.410156 0.738281 L 1.410156 1.945312 L 0.203125 1.945312 Z M 0.203125 0.738281 " clip-rule="nonzero"/></clipPath><clipPath id="9b1cd4acd1"><path d="M 0.804688 0.738281 C 0.472656 0.738281 0.203125 1.007812 0.203125 1.339844 C 0.203125 1.671875 0.472656 1.945312 0.804688 1.945312 C 1.140625 1.945312 1.410156 1.671875 1.410156 1.339844 C 1.410156 1.007812 1.140625 0.738281 0.804688 0.738281 Z M 0.804688 0.738281 " clip-rule="nonzero"/></clipPath><clipPath id="234a09cf80"><rect x="0" width="2" y="0" height="2"/></clipPath><clipPath id="10f6ab1726"><rect x="0" width="150" y="0" height="150"/></clipPath></defs><g transform="matrix(1, 0, 0, 1, 0, -0.000000000000007527)"><g clip-path="url(#10f6ab1726)"><g clip-path="url(#f40d753d27)"><path fill="#588c4c" d="M 183.519531 75.164062 C 183.519531 89.796875 180.65625 103.984375 175.007812 117.339844 C 169.550781 130.242188 161.738281 141.828125 151.78125 151.78125 C 141.828125 161.738281 130.242188 169.550781 117.339844 175.007812 C 103.984375 180.65625 89.796875 183.519531 75.164062 183.519531 C 60.535156 183.519531 46.34375 180.65625 32.988281 175.007812 C 20.089844 169.550781 8.5 161.738281 -1.453125 151.78125 C -11.40625 141.828125 -19.222656 130.242188 -24.679688 117.339844 C -30.324219 103.984375 -33.191406 89.796875 -33.191406 75.164062 C -33.191406 60.535156 -30.324219 46.34375 -24.679688 32.988281 C -19.222656 20.089844 -11.40625 8.5 -1.453125 -1.453125 C 8.5 -11.40625 20.089844 -19.222656 32.988281 -24.679688 C 46.34375 -30.324219 60.535156 -33.191406 75.164062 -33.191406 C 89.796875 -33.191406 103.984375 -30.324219 117.339844 -24.679688 C 130.242188 -19.222656 141.828125 -11.40625 151.78125 -1.453125 C 161.738281 8.5 169.550781 20.089844 175.007812 32.988281 C 180.65625 46.34375 183.519531 60.535156 183.519531 75.164062 Z M 75.164062 -40.523438 C 11.273438 -40.523438 -40.523438 11.273438 -40.523438 75.164062 C -40.523438 139.058594 11.273438 190.851562 75.164062 190.851562 C 139.058594 190.851562 190.851562 139.058594 190.851562 75.164062 C 190.851562 11.273438 139.058594 -40.523438 75.164062 -40.523438 " fill-opacity="1" fill-rule="nonzero"/></g><path fill="#588c4c" d="M 89.832031 53.714844 C 89.679688 53.714844 89.558594 53.589844 89.558594 53.441406 C 89.558594 53.289062 89.679688 53.167969 89.832031 53.167969 C 89.980469 53.167969 90.101562 53.289062 90.101562 53.441406 C 90.101562 53.589844 89.980469 53.714844 89.832031 53.714844 Z M 89.832031 45.835938 C 85.628906 45.835938 82.222656 49.238281 82.222656 53.441406 C 82.222656 57.640625 85.628906 61.046875 89.832031 61.046875 C 94.027344 61.046875 97.433594 57.640625 97.433594 53.441406 C 97.433594 49.238281 94.027344 45.835938 89.832031 45.835938 " fill-opacity="1" fill-rule="nonzero"/><path fill="#588c4c" d="M 46.761719 53.714844 C 46.609375 53.714844 46.488281 53.589844 46.488281 53.441406 C 46.488281 53.289062 46.609375 53.167969 46.761719 53.167969 C 46.910156 53.167969 47.035156 53.289062 47.035156 53.441406 C 47.035156 53.589844 46.910156 53.714844 46.761719 53.714844 Z M 46.761719 45.835938 C 42.5625 45.835938 39.15625 49.238281 39.15625 53.441406 C 39.15625 57.640625 42.5625 61.046875 46.761719 61.046875 C 50.960938 61.046875 54.367188 57.640625 54.367188 53.441406 C 54.367188 49.238281 50.960938 45.835938 46.761719 45.835938 " fill-opacity="1" fill-rule="nonzero"/><path fill="#588c4c" d="M 134.816406 136.726562 L 132.253906 136.726562 C 114.363281 136.726562 99.8125 122.171875 99.8125 104.28125 L 99.8125 95.945312 C 99.8125 90.890625 103.921875 86.78125 108.976562 86.78125 L 117.316406 86.78125 C 126.964844 86.78125 134.816406 94.632812 134.816406 104.28125 Z M 77.332031 139.71875 C 62.285156 139.71875 48.144531 133.859375 37.503906 123.222656 C 26.867188 112.585938 21.007812 98.441406 21.007812 83.398438 L 21.007812 59.320312 C 21.007812 58.695312 21.023438 58.078125 21.046875 57.460938 C 22.875 68.902344 32.324219 78.011719 44.246094 79.011719 C 44.542969 79.089844 44.855469 79.132812 45.179688 79.132812 L 56.699219 79.132812 C 58.097656 79.132812 59.414062 79.675781 60.398438 80.664062 L 65.703125 85.96875 C 66.417969 86.683594 67.359375 87.039062 68.292969 87.039062 C 69.230469 87.039062 70.171875 86.683594 70.886719 85.96875 L 76.191406 80.664062 C 77.175781 79.675781 78.492188 79.132812 79.890625 79.132812 L 93.144531 79.132812 C 93.792969 79.132812 94.40625 78.960938 94.933594 78.667969 C 106.324219 76.535156 114.769531 66.992188 115.761719 55.648438 C 115.855469 56.859375 115.902344 58.085938 115.902344 59.320312 L 115.902344 79.445312 L 108.976562 79.445312 C 99.863281 79.445312 92.480469 86.832031 92.480469 95.945312 L 92.480469 104.28125 C 92.480469 119.746094 101.308594 133.140625 114.199219 139.71875 Z M 92.652344 71.609375 C 92.386719 71.644531 92.125 71.710938 91.882812 71.800781 L 79.890625 71.800781 C 76.535156 71.800781 73.378906 73.109375 71.003906 75.480469 L 68.292969 78.1875 L 65.585938 75.480469 C 63.214844 73.109375 60.058594 71.800781 56.699219 71.800781 L 45.855469 71.800781 C 45.703125 71.769531 45.542969 71.753906 45.382812 71.742188 C 35.296875 71.179688 27.535156 62.507812 28.082031 52.414062 C 28.574219 43.347656 36.046875 35.757812 45.09375 35.128906 C 54.972656 34.441406 63.566406 41.585938 64.652344 51.394531 C 64.859375 53.253906 66.425781 54.65625 68.292969 54.65625 C 70.164062 54.65625 71.730469 53.253906 71.9375 51.394531 C 73.027344 41.582031 81.613281 34.429688 91.503906 35.128906 C 100.507812 35.757812 107.804688 43.019531 108.480469 52.015625 C 109.207031 61.707031 102.257812 70.3125 92.652344 71.609375 Z M 68.453125 11.875 C 87.210938 11.875 103.460938 22.8125 111.15625 38.648438 C 106.820312 32.53125 99.882812 28.367188 92.015625 27.8125 C 82.128906 27.121094 73.152344 32.050781 68.292969 39.945312 C 63.4375 32.054688 54.480469 27.125 44.585938 27.8125 C 37.214844 28.324219 30.59375 32.140625 26.207031 37.738281 C 34.074219 22.398438 50.0625 11.875 68.453125 11.875 Z M 123.234375 80.164062 L 123.234375 59.320312 C 123.234375 29.066406 98.710938 4.542969 68.453125 4.542969 C 38.203125 4.542969 13.675781 29.066406 13.675781 59.320312 L 13.675781 83.398438 C 13.675781 118.554688 42.175781 147.050781 77.332031 147.050781 L 123.234375 147.050781 L 123.234375 143.019531 C 126.132812 143.691406 129.148438 144.058594 132.253906 144.058594 L 142.148438 144.058594 L 142.148438 104.28125 C 142.148438 92.605469 134.089844 82.820312 123.234375 80.164062 " fill-opacity="1" fill-rule="nonzero"/><g clip-path="url(#04ac7046cd)"><g clip-path="url(#3c0beebfa3)"><g transform="matrix(1, 0, 0, 1, 46, 52)"><g clip-path="url(#d153d35bf0)"><g clip-path="url(#e520e3d120)"><g clip-path="url(#73bf11bb5f)"><path fill="#ffffff" d="M 0.0976562 0.738281 L 1.304688 0.738281 L 1.304688 1.945312 L 0.0976562 1.945312 Z M 0.0976562 0.738281 " fill-opacity="1" fill-rule="nonzero"/></g></g></g></g></g></g><g clip-path="url(#382c74a699)"><g clip-path="url(#c02eb9d49e)"><g transform="matrix(1, 0, 0, 1, 89, 52)"><g clip-path="url(#234a09cf80)"><g clip-path="url(#c855cd9a1f)"><g clip-path="url(#9b1cd4acd1)"><path fill="#ffffff" d="M 0.203125 0.738281 L 1.410156 0.738281 L 1.410156 1.945312 L 0.203125 1.945312 Z M 0.203125 0.738281 " fill-opacity="1" fill-rule="nonzero"/></g></g></g></g></g></g></g></g></svg>