<svg xmlns="http://www.w3.org/2000/svg" xmlns:xlink="http://www.w3.org/1999/xlink" width="200" height="200" viewBox="0 0 150 149.999998" preserveAspectRatio="xMidYMid meet" version="1.0">
  <!-- Fundo branco com bordas arredondadas -->
  <rect x="0" y="0" width="150" height="150" fill="#ffffff" rx="20"/>

  <!-- Logo original do banco de dados -->
  <defs>
    <clipPath id="6a074cd9f2">
      <path d="M 0 0 L 150 0 L 150 150 L 0 150 Z M 0 0 " clip-rule="nonzero"/>
    </clipPath>
    <clipPath id="1bbd2567ca">
      <path d="M 45.429688 51.472656 L 46.683594 51.472656 L 46.683594 52.726562 L 45.429688 52.726562 Z M 45.429688 51.472656 " clip-rule="nonzero"/>
    </clipPath>
    <clipPath id="ac7f0c45ce">
      <path d="M 46.054688 51.472656 C 45.710938 51.472656 45.429688 51.753906 45.429688 52.097656 C 45.429688 52.445312 45.710938 52.726562 46.054688 52.726562 C 46.402344 52.726562 46.683594 52.445312 46.683594 52.097656 C 46.683594 51.753906 46.402344 51.472656 46.054688 51.472656 Z M 46.054688 51.472656 " clip-rule="nonzero"/>
    </clipPath>
    <clipPath id="27b33b3fcb">
      <path d="M 0.429688 0.472656 L 1.683594 0.472656 L 1.683594 1.726562 L 0.429688 1.726562 Z M 0.429688 0.472656 " clip-rule="nonzero"/>
    </clipPath>
    <clipPath id="7672ddcb3f">
      <path d="M 1.054688 0.472656 C 0.710938 0.472656 0.429688 0.753906 0.429688 1.097656 C 0.429688 1.445312 0.710938 1.726562 1.054688 1.726562 C 1.402344 1.726562 1.683594 1.445312 1.683594 1.097656 C 1.683594 0.753906 1.402344 0.472656 1.054688 0.472656 Z M 1.054688 0.472656 " clip-rule="nonzero"/>
    </clipPath>
    <clipPath id="be49fc9927">
      <rect x="0" width="2" y="0" height="2"/>
    </clipPath>
    <clipPath id="95da54a12a">
      <path d="M 90.160156 51.472656 L 91.414062 51.472656 L 91.414062 52.726562 L 90.160156 52.726562 Z M 90.160156 51.472656 " clip-rule="nonzero"/>
    </clipPath>
    <clipPath id="de2484caa7">
      <path d="M 90.789062 51.472656 C 90.441406 51.472656 90.160156 51.753906 90.160156 52.097656 C 90.160156 52.445312 90.441406 52.726562 90.789062 52.726562 C 91.132812 52.726562 91.414062 52.445312 91.414062 52.097656 C 91.414062 51.753906 91.132812 51.472656 90.789062 51.472656 Z M 90.789062 51.472656 " clip-rule="nonzero"/>
    </clipPath>
    <clipPath id="7a420896e1">
      <path d="M 0.160156 0.472656 L 1.414062 0.472656 L 1.414062 1.726562 L 0.160156 1.726562 Z M 0.160156 0.472656 " clip-rule="nonzero"/>
    </clipPath>
    <clipPath id="68f3a100c6">
      <path d="M 0.789062 0.472656 C 0.441406 0.472656 0.160156 0.753906 0.160156 1.097656 C 0.160156 1.445312 0.441406 1.726562 0.789062 1.726562 C 1.132812 1.726562 1.414062 1.445312 1.414062 1.097656 C 1.414062 0.753906 1.132812 0.472656 0.789062 0.472656 Z M 0.789062 0.472656 " clip-rule="nonzero"/>
    </clipPath>
    <clipPath id="202f6dba14">
      <rect x="0" width="2" y="0" height="2"/>
    </clipPath>
    <clipPath id="72f6f11d77">
      <rect x="0" width="150" y="0" height="150"/>
    </clipPath>
  </defs>
  <g transform="matrix(1, 0, 0, 1, 0, -0.000000000000007527)">
    <g clip-path="url(#72f6f11d77)">
      <g clip-path="url(#6a074cd9f2)">
        <path fill="#000000" d="M 188.046875 74.75 C 188.046875 89.933594 185.070312 104.660156 179.210938 118.519531 C 173.546875 131.910156 165.4375 143.933594 155.109375 154.265625 C 144.78125 164.59375 132.753906 172.703125 119.363281 178.367188 C 105.503906 184.226562 90.78125 187.199219 75.597656 187.199219 C 60.414062 187.199219 45.6875 184.226562 31.828125 178.367188 C 18.4375 172.703125 6.414062 164.59375 -3.917969 154.265625 C -14.246094 143.933594 -22.355469 131.910156 -28.019531 118.519531 C -33.878906 104.660156 -36.851562 89.933594 -36.851562 74.75 C -36.851562 59.566406 -33.878906 44.84375 -28.019531 30.984375 C -22.355469 17.59375 -14.246094 5.570312 -3.917969 -4.761719 C 6.414062 -15.089844 18.4375 -23.199219 31.828125 -28.863281 C 45.6875 -34.722656 60.414062 -37.699219 75.597656 -37.699219 C 90.78125 -37.699219 105.503906 -34.722656 119.363281 -28.863281 C 132.753906 -23.199219 144.78125 -15.089844 155.109375 -4.761719 C 165.4375 5.570312 173.546875 17.59375 179.210938 30.984375 C 185.070312 44.84375 188.046875 59.566406 188.046875 74.75 Z M 75.597656 -45.304688 C 9.289062 -45.304688 -44.460938 8.445312 -44.460938 74.75 C -44.460938 141.058594 9.289062 194.808594 75.597656 194.808594 C 141.902344 194.808594 195.652344 141.058594 195.652344 74.75 C 195.652344 8.445312 141.902344 -45.304688 75.597656 -45.304688 " fill-opacity="1" fill-rule="nonzero"/>
      </g>
      <path fill="#000000" d="M 90.816406 52.492188 C 90.65625 52.492188 90.53125 52.363281 90.53125 52.207031 C 90.53125 52.050781 90.65625 51.925781 90.816406 51.925781 C 90.972656 51.925781 91.097656 52.050781 91.097656 52.207031 C 91.097656 52.363281 90.972656 52.492188 90.816406 52.492188 Z M 90.816406 44.316406 C 86.457031 44.316406 82.921875 47.847656 82.921875 52.207031 C 82.921875 56.566406 86.457031 60.097656 90.816406 60.097656 C 95.171875 60.097656 98.707031 56.566406 98.707031 52.207031 C 98.707031 47.847656 95.171875 44.316406 90.816406 44.316406 " fill-opacity="1" fill-rule="nonzero"/>
      <path fill="#000000" d="M 46.117188 52.492188 C 45.960938 52.492188 45.835938 52.363281 45.835938 52.207031 C 45.835938 52.050781 45.960938 51.925781 46.117188 51.925781 C 46.277344 51.925781 46.402344 52.050781 46.402344 52.207031 C 46.402344 52.363281 46.277344 52.492188 46.117188 52.492188 Z M 46.117188 44.316406 C 41.761719 44.316406 38.226562 47.847656 38.226562 52.207031 C 38.226562 56.566406 41.761719 60.097656 46.117188 60.097656 C 50.476562 60.097656 54.011719 56.566406 54.011719 52.207031 C 54.011719 47.847656 50.476562 44.316406 46.117188 44.316406 " fill-opacity="1" fill-rule="nonzero"/>
      <path fill="#000000" d="M 137.503906 138.636719 L 134.84375 138.636719 C 116.277344 138.636719 101.175781 123.535156 101.175781 104.96875 L 101.175781 96.316406 C 101.175781 91.070312 105.441406 86.804688 110.683594 86.804688 L 119.339844 86.804688 C 129.355469 86.804688 137.503906 94.953125 137.503906 104.96875 Z M 77.84375 141.742188 C 62.230469 141.742188 47.554688 135.664062 36.511719 124.625 C 25.472656 113.585938 19.394531 98.90625 19.394531 83.296875 L 19.394531 58.308594 C 19.394531 57.660156 19.410156 57.019531 19.433594 56.378906 C 21.332031 68.253906 31.140625 77.707031 43.511719 78.746094 C 43.816406 78.828125 44.144531 78.871094 44.476562 78.871094 L 56.433594 78.871094 C 57.886719 78.871094 59.25 79.433594 60.273438 80.460938 L 65.777344 85.960938 C 66.519531 86.707031 67.492188 87.074219 68.464844 87.074219 C 69.4375 87.074219 70.414062 86.707031 71.15625 85.960938 L 76.660156 80.460938 C 77.683594 79.433594 79.046875 78.871094 80.5 78.871094 L 94.253906 78.871094 C 94.929688 78.871094 95.5625 78.691406 96.113281 78.386719 C 107.929688 76.171875 116.695312 66.269531 117.726562 54.5 C 117.824219 55.757812 117.871094 57.027344 117.871094 58.308594 L 117.871094 79.195312 L 110.683594 79.195312 C 101.226562 79.195312 93.566406 86.859375 93.566406 96.316406 L 93.566406 104.96875 C 93.566406 121.015625 102.730469 134.914062 116.105469 141.742188 Z M 93.746094 71.0625 C 93.46875 71.097656 93.199219 71.167969 92.945312 71.257812 L 80.5 71.257812 C 77.015625 71.257812 73.742188 72.617188 71.277344 75.078125 L 68.464844 77.890625 L 65.65625 75.078125 C 63.191406 72.617188 59.917969 71.257812 56.433594 71.257812 L 45.179688 71.257812 C 45.019531 71.230469 44.855469 71.210938 44.6875 71.199219 C 34.222656 70.617188 26.167969 61.617188 26.734375 51.140625 C 27.246094 41.734375 35 33.855469 44.390625 33.203125 C 54.640625 32.488281 63.558594 39.90625 64.6875 50.085938 C 64.898438 52.011719 66.527344 53.46875 68.464844 53.46875 C 70.40625 53.46875 72.035156 52.011719 72.246094 50.085938 C 73.375 39.902344 82.289062 32.476562 92.554688 33.203125 C 101.894531 33.855469 109.46875 41.390625 110.171875 50.726562 C 110.925781 60.785156 103.710938 69.714844 93.746094 71.0625 Z M 68.632812 9.070312 C 88.097656 9.070312 104.960938 20.425781 112.945312 36.855469 C 108.445312 30.507812 101.246094 26.183594 93.085938 25.613281 C 82.824219 24.890625 73.507812 30.007812 68.464844 38.199219 C 63.425781 30.011719 54.128906 24.898438 43.863281 25.609375 C 36.214844 26.144531 29.34375 30.101562 24.789062 35.914062 C 32.953125 19.992188 49.542969 9.070312 68.632812 9.070312 Z M 125.480469 79.9375 L 125.480469 58.308594 C 125.480469 26.914062 100.03125 1.460938 68.632812 1.460938 C 37.238281 1.460938 11.785156 26.914062 11.785156 58.308594 L 11.785156 83.296875 C 11.785156 119.777344 41.359375 149.355469 77.84375 149.355469 L 125.480469 149.355469 L 125.480469 145.167969 C 128.492188 145.867188 131.621094 146.246094 134.84375 146.246094 L 145.113281 146.246094 L 145.113281 104.96875 C 145.113281 92.851562 136.75 82.695312 125.480469 79.9375 " fill-opacity="1" fill-rule="nonzero"/>
      <g clip-path="url(#1bbd2567ca)">
        <g clip-path="url(#ac7f0c45ce)">
          <g transform="matrix(1, 0, 0, 1, 45, 51)">
            <g clip-path="url(#be49fc9927)">
              <g clip-path="url(#27b33b3fcb)">
                <g clip-path="url(#7672ddcb3f)">
                  <path fill="#ffffff" d="M 0.429688 0.472656 L 1.683594 0.472656 L 1.683594 1.726562 L 0.429688 1.726562 Z M 0.429688 0.472656 " fill-opacity="1" fill-rule="nonzero"/>
                </g>
              </g>
            </g>
          </g>
        </g>
      </g>
      <g clip-path="url(#95da54a12a)">
        <g clip-path="url(#de2484caa7)">
          <g transform="matrix(1, 0, 0, 1, 90, 51)">
            <g clip-path="url(#202f6dba14)">
              <g clip-path="url(#7a420896e1)">
                <g clip-path="url(#68f3a100c6)">
                  <path fill="#ffffff" d="M 0.160156 0.472656 L 1.414062 0.472656 L 1.414062 1.726562 L 0.160156 1.726562 Z M 0.160156 0.472656 " fill-opacity="1" fill-rule="nonzero"/>
                </g>
              </g>
            </g>
          </g>
        </g>
      </g>
    </g>
  </g>
</svg>
